Coordinates
version=1
nRows=11
nColumns=36
inDegrees=yes

Units are S.I. units (second, meters, Newtons, ...)
If the header above contains a line with 'inDegrees', this indicates whether rotational values are in degrees (yes) or radians (no).

endheader
time	pelvis_tilt	pelvis_list	pelvis_rotation	pelvis_tx	pelvis_ty	pelvis_tz	hip_flexion_r	hip_adduction_r	hip_rotation_r	knee_angle_r	knee_angle_r_beta	ankle_angle_r	subtalar_angle_r	mtp_angle_r	hip_flexion_l	hip_adduction_l	hip_rotation_l	knee_angle_l	knee_angle_l_beta	ankle_angle_l	subtalar_angle_l	mtp_angle_l	lumbar_extension	lumbar_bending	lumbar_rotation	arm_flex_r	arm_add_r	arm_rot_r	elbow_flex_r	pro_sup_r	arm_flex_l	arm_add_l	arm_rot_l	elbow_flex_l	pro_sup_l
     44.93333330	     -8.07901376	      0.08372791	    -10.32290765	      0.62030664	      0.90955475	      0.75359117	      7.16966370	      4.03161329	     -2.16180956	     17.25510336	      0.30115837	     23.87434134	      3.93487631	     -7.49999987	     37.23949577	     -6.89485779	    -11.84235489	     31.07898714	      0.54243065	     10.56164423	     10.03058532	     -7.49999987	      7.38575350	      3.40004958	      9.65560420	      6.76812894	    -14.95201565	      5.78491624	     35.54546557	     69.78697482	     -8.23289826	     -6.58907936	     17.60022472	     14.83595820	     65.89452757
     44.95000000	     -8.18744164	      0.54159395	    -10.57781637	      0.61938409	      0.90603490	      0.75316824	      5.75754633	      3.50240276	     -1.66149102	     16.24163531	      0.28347001	     22.89778172	      4.74360936	     -7.49999987	     37.70981839	     -6.63236888	    -11.84342443	     30.00140679	      0.52362333	     11.00953200	     10.27245897	     -7.49999987	      7.70719619	      2.87276450	      9.70818999	      6.95493634	    -14.74463249	      5.93547076	     35.85511934	     69.78522668	     -8.30468598	     -6.59282858	     17.50728816	     14.85316048	     65.96026534
     44.96666670	     -7.66242408	      1.14070496	    -10.72572802	      0.61985864	      0.90218674	      0.75226490	      3.92360995	      2.56340320	     -1.51901265	     15.75138394	      0.27491351	     22.11931193	      5.40996637	     -7.49999987	     37.37750296	     -6.10184092	    -12.07028292	     29.35659870	      0.51236930	     11.73117036	     10.73573660	     -7.49999987	      7.15899542	      1.94775914	      9.68319563	      7.34928157	    -14.50045905	      6.31598226	     35.96612325	     69.77482536	     -7.92919519	     -6.66444820	     17.13304488	     14.71313245	     66.16835294
     44.98333330	     -7.65447391	      1.62061703	    -10.83730905	      0.62040224	      0.89813909	      0.75044349	      3.05910918	      1.71816742	     -1.52801428	     16.11570626	      0.28127214	     21.59100340	      5.48637758	     -7.49999987	     37.59366137	     -5.67409274	    -12.01385111	     29.38935237	      0.51294096	     12.44644063	     10.61815411	     -7.49999987	      7.40560217	      1.36897884	      9.58163736	      7.31699950	    -14.27982961	      6.41924829	     35.96443923	     69.78043004	     -7.75683581	     -6.76931235	     17.05608773	     14.72285621	     66.19795350
     45.00000000	     -7.37674134	      2.12661690	    -10.90958649	      0.61962601	      0.89548344	      0.74807234	      2.38137775	      0.69340705	     -1.75917876	     17.24882516	      0.30104879	     21.66081974	      5.03887496	     -7.49999987	     37.23373787	     -5.08014816	    -12.14348779	     29.41825106	      0.51344534	     12.68197020	     10.58340813	     -7.49999987	      7.30418526	      0.66768607	      9.44451825	      7.35828074	    -14.03020742	      6.61204799	     35.81307721	     69.79730432	     -7.35840713	     -7.00927651	     16.84733812	     14.79927413	     66.24407398
     45.01666670	     -6.89049295	      2.48844141	    -11.07738772	      0.61867010	      0.89369061	      0.74496052	      1.78074867	     -0.21930559	     -1.69805521	     18.75280289	      0.32729815	     21.96765781	      4.08883687	     -7.49999987	     36.39585217	     -4.53738649	    -12.37500382	     29.49405337	      0.51476834	     12.28429325	     10.28220982	     -7.49999987	      6.90845422	      0.07284990	      9.31118037	      7.49790343	    -13.85193297	      7.09762634	     35.36467871	     69.87316118	     -6.99436484	     -7.17571163	     16.21463323	     15.10903192	     66.37062350
     45.03333330	     -6.69275930	      2.77885606	    -11.19532603	      0.62004693	      0.89178364	      0.74125448	      1.65977281	     -0.98461889	     -1.49314075	     20.52638538	      0.35825301	     22.25866681	      2.73155342	     -7.49999987	     35.59518010	     -3.97946211	    -12.54762727	     29.50447292	      0.51495020	     11.49591848	      9.82171196	     -7.49999987	      6.89999962	     -0.31614441	      9.11488343	      7.24735274	    -13.70440651	      7.42958294	     35.07142088	     69.93712266	     -6.70724243	     -7.30468320	     15.77768941	     15.38672740	     66.45226825
     45.05000000	     -6.55379972	      2.93728026	    -11.18964014	      0.62347825	      0.89115976	      0.73783150	      1.67476171	     -1.53633068	     -1.02336231	     22.40671562	      0.39107096	     21.83029726	      0.69513332	     -7.49999987	     34.55102180	     -3.38024090	    -12.53148867	     29.27344734	      0.51091804	     10.37201833	      9.08779035	     -7.49999987	      6.96885181	     -0.61251117	      8.84491409	      6.75065929	    -13.62184710	      7.86824984	     34.47067004	     70.02219183	     -6.39281749	     -7.38783370	     14.96236627	     15.79273471	     66.65029289
     45.06666670	     -6.47795688	      2.99237608	    -11.13662364	      0.62767679	      0.89339699	      0.73491363	      2.16154361	     -2.02526743	     -0.64086150	     25.18263680	      0.43951993	     21.08823464	     -0.90192025	     -7.49999987	     33.20189204	     -2.82764170	    -12.60181734	     28.62904223	      0.49967105	      9.03781685	      8.57329221	     -7.49999987	      7.05519750	     -0.84695969	      8.42982024	      5.85493224	    -13.41901566	      8.00169372	     34.01262859	     70.01873370	     -6.06129469	     -7.50117539	     14.72828154	     15.90101375	     66.70664549
     45.08333330	     -6.46293102	      2.83038054	    -11.09282408	      0.63242442	      0.89764373	      0.73171365	      3.29990559	     -2.19372676	      0.36712446	     29.15246147	      0.50880644	     18.77751261	     -4.19548583	     -7.49999987	     31.55800943	     -2.39136109	    -12.47419243	     27.55334168	      0.48089653	      7.49685272	      7.33219486	     -7.49999987	      7.30171962	     -0.70008568	      8.12959519	      4.65613678	    -13.36472512	      7.91694543	     33.15810145	     69.91487139	     -5.84111206	     -7.34180868	     14.41306821	     15.91323613	     66.76691874
     45.10000000	     -6.57118141	      2.44805298	    -10.87895244	      0.63636129	      0.90247971	      0.72853695	      5.39012100	     -1.97744393	      1.70993866	     35.01505597	      0.61112801	     14.71204770	     -8.79809326	     -7.49999987	     29.98748586	     -2.15646612	    -12.13426503	     26.60624390	      0.46436656	      6.40906578	      6.01013612	     -7.49999987	      7.56001485	     -0.28550045	      7.69130306	      3.32773497	    -13.26204766	      7.33805751	     32.06196133	     69.55799324	     -5.61191067	     -7.07984990	     13.99470403	     15.77696870	     66.81120420
